<?xml version="1.0" standalone="no"?>
<!DOCTYPE svg PUBLIC "-//W3C//DTD SVG 20010904//EN"
 "http://www.w3.org/TR/2001/REC-SVG-20010904/DTD/svg10.dtd">
<svg version="1.0" xmlns="http://www.w3.org/2000/svg"
 width="512.000000pt" height="512.000000pt" viewBox="0 0 512.000000 512.000000"
 preserveAspectRatio="xMidYMid meet">

<g transform="translate(0.000000,512.000000) scale(0.100000,-0.100000)"
fill="#000000" stroke="none">
<path d="M430 5110 c0 -5 -21 -16 -47 -23 -93 -28 -148 -61 -219 -131 -70 -71
-103 -126 -131 -218 -7 -27 -18 -48 -23 -48 -7 0 -10 -774 -10 -2130 0 -1356
3 -2130 10 -2130 5 0 16 -21 23 -47 28 -93 61 -148 131 -219 71 -70 126 -103
218 -131 27 -7 48 -18 48 -23 0 -7 774 -10 2130 -10 1356 0 2130 3 2130 10 0
5 21 16 48 23 92 28 147 61 218 131 70 71 103 126 131 219 7 26 18 47 23 47 7
0 10 774 10 2130 0 1356 -3 2130 -10 2130 -5 0 -16 21 -23 48 -28 92 -61 147
-131 218 -71 70 -126 103 -218 131 -27 7 -48 18 -48 23 0 7 -774 10 -2130 10
-1356 0 -2130 -3 -2130 -10z m2903 -856 c168 -37 271 -86 368 -176 37 -35 109
-121 109 -131 0 -3 13 -28 28 -54 16 -26 31 -57 35 -68 3 -11 15 -47 27 -80
44 -125 60 -332 40 -510 -33 -289 -117 -565 -382 -1250 -55 -143 -78 -246 -78
-353 0 -144 21 -192 85 -192 76 0 163 68 456 357 160 157 179 173 211 173 55
0 83 -46 94 -152 27 -263 -284 -658 -651 -826 -27 -13 -57 -27 -66 -32 -8 -4
-51 -18 -95 -31 -67 -20 -101 -24 -224 -23 -123 0 -154 3 -203 22 -177 64
-259 221 -258 492 0 143 24 280 93 530 57 205 55 199 74 263 10 31 15 60 11
63 -8 9 -595 25 -762 22 l-140 -3 -6 -45 c-36 -237 -59 -508 -69 -810 -8 -256
-12 -280 -52 -355 -29 -54 -88 -103 -181 -149 -151 -74 -189 -86 -274 -86 -89
0 -133 20 -175 79 -56 79 -63 116 -63 351 0 275 19 407 111 778 25 101 44 185
41 188 -5 5 -243 -21 -320 -36 -32 -6 -107 -12 -167 -13 -94 -2 -111 1 -129
17 -42 38 -20 113 60 201 116 126 331 230 614 296 50 12 97 25 106 30 9 4 31
45 49 91 67 170 240 507 329 643 275 420 600 697 906 773 105 26 341 30 448 6z"/>
<path d="M2854 3620 c-83 -24 -154 -61 -222 -115 -153 -120 -297 -354 -391
-632 -37 -111 -89 -99 452 -106 402 -4 474 -3 483 9 11 14 35 97 81 279 14 53
18 108 17 225 0 146 -2 158 -26 212 -31 66 -66 103 -123 129 -53 25 -187 24
-271 -1z"/>
</g>
</svg>
